# xmcd
#
# Track frame offsets:
# 150
# 12161
# 26210
# 41221
# 51132
#
# Disc length: 761 seconds
#
# Revision: 0
# Processed by: cddbd v1.5.1PL0 Copyright (c) Steve Scherf et al.
# Submitted via: Audion 3.0.2 (http://www.panic.com/audion/)
#
DISCID=3c02f705
DTITLE=Amy Uber Alles - An Experimental Noise Revolution!
DYEAR=1900
DGENRE=
TTITLE0=Crush It All Away
TTITLE1=Zero Civilization
TTITLE2=Nuclear Holiday
TTITLE3=Toxic Revolt
TTITLE4=Wasteland of Demented Toys
EXTD=
EXTT0=
EXTT1=
EXTT2=
EXTT3=
EXTT4=
PLAYORDER=
